<svg width="24" height="34" viewBox="0 0 24 34" fill="none" xmlns="http://www.w3.org/2000/svg">
<path d="M11.6667 24.125C14.4167 21.9028 16.4931 19.7639 17.8958 17.7083C19.2986 15.6528 20 13.7222 20 11.9167C20 9.41667 19.2222 7.36111 17.6667 5.75C16.1111 4.13889 14.1111 3.33333 11.6667 3.33333C9.22222 3.33333 7.22222 4.13889 5.66667 5.75C4.11111 7.36111 3.33333 9.41667 3.33333 11.9167C3.33333 13.7222 4.03472 15.6528 5.4375 17.7083C6.84028 19.7639 8.91667 21.9028 11.6667 24.125ZM11.6667 28.3333C7.75 25.4444 4.82639 22.6389 2.89583 19.9167C0.965278 17.1944 0 14.5278 0 11.9167C0 8.44444 1.08333 5.59028 3.25 3.35417C5.41667 1.11806 8.22222 0 11.6667 0C15.1111 0 17.9167 1.11806 20.0833 3.35417C22.25 5.59028 23.3333 8.44444 23.3333 11.9167C23.3333 14.5278 22.3681 17.1944 20.4375 19.9167C18.5069 22.6389 15.5833 25.4444 11.6667 28.3333ZM11.6667 15C12.5833 15 13.3681 14.6736 14.0208 14.0208C14.6736 13.3681 15 12.5833 15 11.6667C15 10.75 14.6736 9.96528 14.0208 9.3125C13.3681 8.65972 12.5833 8.33333 11.6667 8.33333C10.75 8.33333 9.96528 8.65972 9.3125 9.3125C8.65972 9.96528 8.33333 10.75 8.33333 11.6667C8.33333 12.5833 8.65972 13.3681 9.3125 14.0208C9.96528 14.6736 10.75 15 11.6667 15ZM0 33.3333V30H23.3333V33.3333H0Z" fill="#759115"/>
</svg>
